<?xml version="1.0" standalone="no"?>
<!DOCTYPE svg PUBLIC "-//W3C//DTD SVG 20010904//EN"
 "http://www.w3.org/TR/2001/REC-SVG-20010904/DTD/svg10.dtd">
<svg version="1.0" xmlns="http://www.w3.org/2000/svg"
 width="500.000000pt" height="500.000000pt" viewBox="0 0 500.000000 500.000000"
 preserveAspectRatio="xMidYMid meet">
<metadata>
Created by potrace 1.14, written by Peter Selinger 2001-2017
</metadata>
<g transform="translate(0.000000,500.000000) scale(0.100000,-0.100000)"
fill="#000000" stroke="none">
<path d="M1823 3283 c-28 -49 -60 -114 -72 -146 -11 -32 -30 -76 -42 -98 -20
-39 -20 -41 -2 -67 19 -28 27 -65 12 -56 -5 3 -9 0 -9 -5 0 -6 5 -11 12 -11 6
0 9 -3 6 -6 -4 -3 -19 2 -35 12 -15 10 -23 12 -16 5 6 -8 9 -19 7 -26 -3 -6 3
-18 12 -26 12 -9 15 -10 10 -1 -4 6 -2 12 3 12 6 0 11 -6 11 -12 1 -23 18 15
24 52 3 24 -1 44 -15 67 -16 25 -18 37 -10 52 6 11 23 52 37 93 15 40 43 102
64 138 49 85 62 110 56 110 -2 0 -26 -39 -53 -87z"/>
<path d="M1552 3268 c-32 -47 -55 -104 -76 -188 -14 -53 -14 -56 7 -78 l22
-23 -28 10 c-38 15 -41 14 -23 -4 8 -8 23 -15 33 -15 15 0 16 -2 3 -10 -8 -5
-10 -10 -5 -10 6 0 3 -5 -5 -10 -13 -9 -13 -10 0 -10 8 -1 4 -6 -10 -12 -22
-10 -23 -12 -6 -15 24 -6 32 4 40 48 5 28 2 39 -13 53 -18 16 -18 19 5 98 13
44 35 99 48 122 46 75 44 73 60 51 13 -19 14 -18 9 8 -8 39 -28 34 -61 -15z"/>
<path d="M1608 3203 c2 -27 8 -52 14 -58 6 -6 8 1 4 20 -2 17 -5 42 -5 58 -1
15 -4 27 -9 27 -4 0 -6 -21 -4 -47z"/>
<path d="M1248 3195 c-3 -4 2 -27 13 -52 10 -24 19 -51 19 -59 0 -7 9 -19 21
-26 11 -7 30 -29 42 -48 11 -19 27 -39 34 -43 7 -4 13 -13 13 -19 0 -6 7 -20
16 -30 16 -16 15 -18 -2 -24 -56 -20 -163 -76 -168 -89 -3 -8 -1 -15 3 -15 5
0 11 7 15 15 5 15 73 49 149 76 41 14 46 26 20 51 -10 9 -29 33 -43 54 -14 20
-38 50 -53 65 -15 15 -30 37 -32 48 -6 35 -40 103 -47 96z"/>
<path d="M1206 3171 c-5 -7 -3 -18 3 -24 6 -6 11 -21 11 -34 0 -13 4 -23 8
-23 11 0 8 37 -5 69 -7 17 -12 21 -17 12z"/>
<path d="M1619 3108 c-1 -13 -2 -43 -3 -68 -1 -36 -5 -47 -22 -54 -28 -12 -59
-76 -37 -76 8 0 12 4 9 9 -3 5 5 12 18 15 18 4 23 11 19 26 -3 12 1 22 11 26
13 5 16 20 15 75 -1 65 -8 95 -10 47z"/>
<path d="M1927 3071 c-4 -17 -3 -21 5 -13 5 5 8 16 6 23 -3 8 -7 3 -11 -10z"/>
<path d="M1222 3060 c0 -14 2 -19 5 -12 2 6 2 18 0 25 -3 6 -5 1 -5 -13z"/>
<path d="M1231 2991 c-17 -11 -10 -46 9 -46 17 0 26 33 13 46 -4 4 -14 4 -22
0z m19 -26 c0 -8 -4 -15 -8 -15 -5 0 -9 7 -9 15 0 8 4 15 9 15 4 0 8 -7 8 -15z"/>
<path d="M1190 2976 c0 -9 5 -16 10 -16 6 0 10 4 10 9 0 6 -4 13 -10 16 -5 3
-10 -1 -10 -9z"/>
<path d="M1920 2960 c0 -14 -11 -22 -40 -31 -33 -10 -42 -18 -50 -48 -13 -46
-13 -64 0 -56 6 4 18 1 27 -7 9 -7 14 -8 10 -2 -4 7 0 15 9 18 8 3 12 11 8 17
-5 9 1 10 20 5 14 -3 26 -4 26 -1 0 10 -45 23 -50 14 -3 -4 -11 0 -17 11 -11
16 -7 20 27 34 32 13 40 21 40 41 0 14 -2 25 -5 25 -3 0 -5 -9 -5 -20z m-43
-116 c-3 -3 -12 -4 -19 -1 -8 3 -5 6 6 6 11 1 17 -2 13 -5z"/>
<path d="M1670 2951 c0 -5 7 -14 15 -21 13 -11 18 -11 28 0 9 10 9 11 -1 6 -7
-4 -15 -1 -18 8 -7 17 -24 22 -24 7z"/>
<path d="M1202 2808 c2 -7 -4 -12 -13 -12 -10 1 -22 -9 -28 -22 -14 -31 -7
-30 31 5 20 19 27 31 19 35 -7 5 -10 2 -9 -6z"/>
<path d="M1918 2790 c12 -5 22 -16 22 -24 0 -13 29 -31 37 -22 8 7 -51 56 -67
55 -9 0 -6 -4 8 -9z"/>
<path d="M1130 2719 c-7 -11 -10 -23 -7 -25 2 -2 9 7 15 21 14 30 7 33 -8 4z"/>
<path d="M1971 2716 c2 -2 14 -9 26 -15 19 -10 22 -9 17 4 -4 8 -15 15 -27 15
-11 0 -18 -2 -16 -4z"/>
<path d="M1105 2670 c-4 -6 -12 -32 -18 -58 -10 -41 -17 -50 -54 -67 -43 -21
-71 -43 -41 -32 11 4 24 -3 38 -20 11 -14 20 -20 20 -13 0 8 -7 22 -17 32 -15
17 -15 18 9 18 14 0 31 -7 38 -15 7 -9 15 -13 18 -10 3 3 -3 14 -14 26 -18 19
-18 21 -1 30 10 6 14 16 10 22 -3 7 4 3 16 -8 l23 -20 -19 32 c-15 27 -16 37
-6 62 11 31 10 41 -2 21z"/>
<path d="M2042 2624 c18 -27 33 -53 33 -59 1 -5 13 -35 27 -65 14 -30 29 -65
33 -78 4 -13 9 -22 11 -19 7 7 -57 167 -86 216 -14 25 -31 46 -38 49 -7 2 2
-18 20 -44z"/>
<path d="M1267 2622 c-42 -9 -63 -114 -29 -145 48 -44 137 3 126 65 -12 64
-45 91 -97 80z m56 -24 c9 -7 21 -28 27 -46 8 -30 6 -37 -17 -58 -28 -26 -71
-32 -91 -12 -17 17 -15 79 4 106 17 24 51 29 77 10z"/>
<path d="M1246 2563 c-12 -13 -6 -53 9 -53 9 0 15 9 15 24 0 26 -12 40 -24 29z"/>
<path d="M986 2474 c-22 -22 -20 -24 9 -11 14 7 25 15 25 20 0 12 -18 8 -34
-9z"/>
<path d="M943 2429 c27 -16 20 -34 -19 -48 -19 -7 -33 -15 -30 -18 2 -3 21 1
40 8 29 10 36 18 36 39 0 20 -5 26 -22 27 -20 2 -21 1 -5 -8z"/>
<path d="M1265 2371 c6 -6 35 -11 65 -12 60 -2 195 -17 223 -25 9 -3 17 -2 17
3 0 11 -143 34 -240 40 -48 2 -71 0 -65 -6z"/>
<path d="M2162 2355 c0 -11 3 -29 8 -40 11 -25 11 1 0 35 -6 20 -8 21 -8 5z"/>
<path d="M946 2341 c-4 -6 -2 -11 3 -11 6 0 11 -11 11 -25 0 -14 -5 -25 -10
-25 -6 0 -18 -16 -27 -35 -9 -19 -20 -35 -23 -35 -4 0 -22 -21 -40 -47 l-34
-48 35 30 c57 50 91 60 154 46 30 -7 66 -22 82 -34 l28 -21 -19 22 c-25 28
-109 56 -152 49 -45 -8 -43 6 8 56 23 22 34 38 25 34 -12 -4 -17 -1 -17 11 0
25 -16 47 -24 33z"/>
<path d="M1190 2339 c0 -6 7 -8 16 -5 9 4 13 2 8 -5 -5 -8 3 -10 24 -7 18 2
28 0 25 -5 -3 -5 8 -6 28 -2 19 4 31 4 26 -1 -8 -9 204 -74 240 -74 77 0 -63
50 -249 89 -113 24 -118 25 -118 10z m270 -59 c8 -5 11 -10 5 -10 -5 0 -17 5
-25 10 -8 5 -10 10 -5 10 6 0 17 -5 25 -10z"/>
<path d="M3395 2340 c-9 -14 4 -52 16 -45 12 8 12 42 0 50 -5 3 -12 1 -16 -5z"/>
<path d="M2465 2330 c-9 -15 4 -50 19 -50 9 0 12 9 8 25 -5 29 -18 40 -27 25z"/>
<path d="M2504 2324 c3 -9 6 -20 6 -25 0 -5 7 -9 15 -9 8 0 15 4 15 9 0 21
-13 41 -27 41 -10 0 -13 -6 -9 -16z"/>
<path d="M3046 2332 c-3 -5 -2 -21 2 -35 5 -18 11 -24 20 -18 10 6 10 14 3 34
-11 28 -16 32 -25 19z"/>
<path d="M3087 2333 c-3 -5 -1 -19 4 -32 12 -31 34 -13 24 18 -6 21 -20 28
-28 14z"/>
<path d="M3343 2321 c6 -24 10 -23 -108 -25 -82 -1 -90 -3 -90 -20 0 -18 8
-19 98 -19 l97 1 0 -26 c0 -61 -87 -152 -145 -152 -24 0 -14 -34 10 -38 31 -3
96 38 131 85 56 74 68 202 19 212 -14 2 -17 -2 -12 -18z"/>
<path d="M3747 2333 c-2 -5 -7 -20 -10 -34 -4 -14 -18 -43 -32 -64 -28 -40
-28 -78 0 -55 13 11 15 1 15 -74 0 -78 2 -86 19 -86 18 0 20 8 19 83 0 116 0
111 16 98 12 -10 19 -5 40 26 14 21 26 31 27 23 1 -8 1 -63 1 -122 0 -100 1
-108 19 -108 15 0 19 7 19 35 0 19 3 35 8 36 4 0 25 1 47 2 29 2 41 7 43 20 3
14 -4 17 -47 17 -47 0 -51 2 -51 23 0 22 4 23 49 22 42 -1 49 1 48 17 -1 18
-21 23 -74 18 -18 -1 -23 4 -23 24 0 23 4 25 53 28 38 2 52 7 52 18 0 12 -14
15 -67 14 -66 0 -67 0 -62 23 5 18 2 23 -13 23 -13 0 -23 -12 -32 -37 -8 -21
-21 -49 -29 -62 -15 -21 -16 -22 -22 -5 -4 10 -1 30 7 44 17 33 17 60 -1 60
-8 0 -17 -3 -19 -7z"/>
<path d="M2086 2304 c-4 -14 -26 -45 -51 -69 -37 -37 -41 -46 -29 -56 12 -10
23 -5 57 29 39 38 47 42 94 42 l52 0 -16 -44 c-15 -40 -19 -43 -36 -33 -55 34
-61 36 -74 25 -11 -9 -6 -16 22 -36 19 -14 35 -29 35 -33 0 -4 -29 -22 -66
-40 -54 -27 -63 -35 -52 -45 43 -43 180 68 216 175 22 63 19 68 -50 67 -60 -1
-63 0 -60 22 5 33 -34 30 -42 -4z"/>
<path d="M2718 2323 c0 -5 -2 -12 -3 -18 -2 -5 -3 -16 -4 -22 -1 -9 -23 -13
-75 -13 -56 0 -75 -4 -79 -15 -8 -20 0 -23 66 -22 33 1 61 -1 64 -5 2 -5 -25
-38 -61 -74 -37 -39 -62 -72 -59 -80 3 -8 7 -14 10 -14 13 0 80 60 105 94 l28
39 0 -82 c0 -73 2 -82 18 -79 14 3 17 17 20 101 l3 97 34 0 c28 0 35 4 35 20
0 16 -7 20 -35 20 -32 0 -35 2 -35 30 0 20 -5 30 -15 30 -8 0 -16 -3 -17 -7z"/>
<path d="M4040 2268 l0 -63 92 2 c51 1 101 2 111 2 14 1 17 11 17 61 l0 60
-110 0 -110 0 0 -62z m190 0 l0 -28 -78 0 -79 0 3 28 c1 15 2 27 3 28 1 0 35
1 76 1 l75 -1 0 -28z"/>
<path d="M3459 2311 c0 -3 -1 -45 -2 -94 -2 -81 -1 -87 18 -87 19 0 21 6 19
88 -2 106 -1 99 -19 99 -8 0 -15 -3 -16 -6z"/>
<path d="M3619 2318 c0 -2 -2 -43 -3 -93 -2 -49 -6 -98 -10 -107 -9 -21 -66
-48 -100 -48 -20 0 -26 -5 -26 -21 0 -19 4 -21 39 -16 52 7 90 26 114 58 15
21 19 46 21 128 2 92 1 101 -16 101 -10 0 -18 -1 -19 -2z"/>
<path d="M1726 2302 c-12 -21 15 -31 87 -34 l77 -3 -23 -43 c-27 -51 -90 -118
-129 -138 -31 -16 -36 -32 -14 -40 19 -7 48 9 97 53 l40 36 49 -48 c45 -44 70
-52 70 -21 0 7 -22 33 -48 58 l-48 45 22 49 c45 101 50 94 -70 94 -58 0 -107
-4 -110 -8z"/>
<path d="M2290 2293 c0 -11 15 -24 40 -35 39 -16 40 -16 51 3 9 17 5 22 -25
34 -47 20 -66 19 -66 -2z"/>
<path d="M2873 2295 c-7 -19 -8 -17 44 -37 36 -14 42 -14 47 -1 9 21 9 21 -24
38 -37 19 -59 19 -67 0z"/>
<path d="M1254 2259 c-8 -14 -12 -12 96 -58 100 -43 142 -53 101 -24 -44 31
-113 61 -127 56 -7 -2 -21 0 -31 7 -16 10 -15 10 5 5 33 -9 27 1 -8 13 -20 7
-32 7 -36 1z m161 -69 c3 -6 -1 -7 -9 -4 -18 7 -21 14 -7 14 6 0 13 -4 16 -10z"/>
<path d="M2469 2210 c-28 -64 -74 -104 -138 -120 -40 -9 -51 -16 -51 -32 0
-16 5 -18 34 -14 89 14 144 55 185 137 17 34 28 65 25 70 -13 22 -35 5 -55
-41z"/>
<path d="M3056 2217 c-30 -78 -97 -127 -188 -136 -12 -1 -10 -29 2 -36 18 -11
114 23 151 54 37 31 94 135 84 152 -13 21 -33 7 -49 -34z"/>
<path d="M2265 2223 c-3 -9 -4 -17 -3 -18 6 -6 81 -35 89 -35 16 0 9 38 -8 45
-53 21 -72 23 -78 8z"/>
<path d="M2851 2221 c-9 -16 -4 -21 35 -36 39 -15 48 -15 55 -4 10 17 4 24
-43 43 -35 15 -38 15 -47 -3z"/>
<path d="M4010 2100 c0 -63 3 -80 14 -80 8 0 17 4 20 9 3 5 17 9 31 9 14 0 28
-4 31 -9 3 -5 11 -9 18 -9 10 0 13 21 13 80 l1 80 -64 0 -64 0 0 -80z m91 43
c10 -66 7 -73 -25 -73 -30 0 -32 2 -30 33 2 47 2 47 29 47 14 0 25 -3 26 -7z"/>
<path d="M4160 2100 c0 -63 3 -80 14 -80 8 0 17 4 20 8 6 10 52 9 62 -1 4 -4
13 -7 21 -7 10 0 13 20 13 80 l0 80 -65 0 -65 0 0 -80z m100 10 c0 -39 -1 -40
-35 -40 -34 0 -35 1 -35 40 0 39 1 40 35 40 34 0 35 -1 35 -40z"/>
<path d="M1137 2129 c7 -7 15 -10 18 -7 3 3 -2 9 -12 12 -14 6 -15 5 -6 -5z"/>
<path d="M788 2088 c-50 -67 -109 -206 -107 -253 1 -11 6 -3 11 18 6 20 14 37
20 37 5 0 6 4 3 10 -11 18 45 23 64 6 10 -9 21 -16 24 -16 4 0 7 27 7 61 0 60
0 61 -25 55 -30 -8 -32 3 -4 38 11 14 17 26 13 26 -4 0 1 9 11 20 10 11 16 22
13 25 -3 3 -16 -9 -30 -27z m11 -137 c2 -42 1 -44 -12 -27 -12 16 -19 17 -44
8 -28 -9 -30 -8 -26 9 3 11 14 24 25 30 10 5 17 13 14 17 -2 4 6 8 18 8 20 2
23 -4 25 -45z"/>
<path d="M1170 2091 c42 -35 44 -37 76 -74 17 -20 41 -63 54 -97 12 -33 25
-59 27 -56 2 2 -7 31 -21 64 -28 70 -83 141 -129 166 l-32 17 25 -20z"/>
<path d="M919 1892 c-60 -46 -64 -61 -15 -59 37 2 39 17 3 17 -20 0 -20 2 8
25 17 13 36 24 43 25 18 0 34 -49 30 -92 -2 -21 0 -38 4 -38 10 0 10 55 2 99
-10 47 -33 55 -75 23z"/>
<path d="M2050 1888 c-35 -38 -21 -77 39 -108 43 -22 52 -36 41 -66 -13 -34
-38 -37 -65 -8 -29 31 -49 24 -33 -11 20 -43 85 -50 116 -12 35 42 18 97 -39
122 -21 10 -40 24 -44 33 -12 31 37 56 62 31 20 -20 36 1 17 22 -23 26 -68 24
-94 -3z"/>
<path d="M2176 1895 c-3 -9 4 -15 22 -17 l27 -3 3 -107 c2 -87 6 -108 17 -108
12 0 15 20 15 111 l0 110 25 -3 c13 -2 24 0 25 5 0 4 0 11 0 15 0 15 -128 11
-134 -3z"/>
<path d="M2330 1821 c0 -49 4 -101 10 -116 13 -35 64 -56 102 -43 42 15 55 51
57 154 2 76 0 91 -13 91 -13 0 -16 -15 -16 -81 0 -45 -3 -91 -6 -102 -8 -29
-44 -45 -70 -31 -29 16 -31 23 -33 115 -1 47 -4 89 -7 94 -16 25 -24 -2 -24
-81z"/>
<path d="M2538 1897 c-2 -6 -4 -61 -4 -122 l1 -110 47 1 c26 0 59 7 73 14 74
39 74 169 1 207 -40 21 -113 27 -118 10z m122 -55 c37 -47 19 -123 -33 -142
-61 -21 -62 -18 -63 78 0 48 4 90 8 93 18 12 69 -5 88 -29z"/>
<path d="M2739 1863 c-2 -125 -1 -195 4 -200 19 -18 27 19 27 128 0 99 -3 119
-15 119 -11 0 -15 -12 -16 -47z"/>
<path d="M2843 1885 c-93 -74 -44 -227 73 -227 64 0 116 57 116 127 0 102
-111 161 -189 100z m130 -30 c48 -49 36 -134 -24 -159 -76 -32 -145 44 -117
127 21 59 96 77 141 32z"/>
<path d="M3201 1897 c-86 -44 -85 -192 2 -228 75 -31 137 5 152 89 5 30 5 30
-40 29 -27 0 -46 -6 -49 -14 -5 -13 4 -17 37 -14 35 4 15 -47 -27 -64 -51 -22
-100 14 -112 81 -5 29 19 80 45 94 29 15 77 12 91 -5 16 -19 40 -19 40 0 0 19
-51 45 -87 45 -15 0 -39 -6 -52 -13z"/>
<path d="M3387 1903 c-4 -3 -7 -60 -7 -125 0 -98 3 -118 15 -118 12 0 15 13
15 60 l0 60 55 -1 55 -2 0 -58 c0 -46 3 -59 15 -59 13 0 15 20 15 123 0 103
-2 124 -15 124 -11 0 -15 -12 -15 -48 l0 -47 -51 -4 c-28 -1 -53 -1 -55 1 -2
2 -4 26 -4 53 0 45 -7 57 -23 41z"/>
<path d="M3590 1785 c0 -97 3 -126 13 -122 9 3 12 36 12 122 0 86 -3 119 -12
123 -10 3 -13 -26 -13 -123z"/>
<path d="M3659 1887 c-1 -31 -1 -177 0 -204 1 -20 7 -23 40 -23 75 0 120 71
71 115 -15 13 -17 22 -10 36 25 46 -2 86 -64 94 -32 4 -36 2 -37 -18z m72 -24
c18 -18 2 -63 -21 -63 -20 0 -22 4 -22 40 0 11 0 24 1 29 1 12 28 8 42 -6z
m23 -115 c16 -25 -4 -52 -40 -56 -28 -3 -30 -1 -28 35 1 21 3 39 3 41 3 11 56
-6 65 -20z"/>
<path d="M3820 1785 l0 -125 50 0 c38 0 50 4 50 15 0 10 -11 15 -35 15 l-35 0
0 110 c0 91 -3 110 -15 110 -13 0 -15 -21 -15 -125z"/>
<path d="M3939 1888 c0 -36 0 -191 0 -210 1 -10 7 -18 14 -18 18 0 18 241 0
247 -8 3 -13 -5 -14 -19z"/>
<path d="M1334 1842 c3 -5 6 -27 7 -50 2 -22 5 -39 9 -37 9 6 -1 95 -12 95 -5
0 -7 -4 -4 -8z"/>
<path d="M950 1823 c0 -6 8 -17 18 -24 16 -13 16 -13 2 6 -8 11 -16 22 -17 24
-2 2 -3 0 -3 -6z"/>
<path d="M1127 1712 c-35 -36 -34 -52 1 -52 16 0 37 -9 47 -20 27 -29 35 -25
35 20 0 22 -4 40 -8 40 -5 0 -7 -13 -4 -30 5 -33 -2 -37 -24 -15 -9 8 -26 15
-40 15 -31 0 -30 5 2 35 31 29 35 30 54 13 12 -11 12 -10 1 5 -19 24 -33 21
-64 -11z"/>
</g>
</svg>
