<svg width="364" height="175" viewBox="0 0 364 175" fill="none" xmlns="http://www.w3.org/2000/svg">
<path d="M145.9 150.9C145.1 149.4 144 148.6 142.2 148.6C140.4 148.6 138.4 149.9 138.4 152.1C138.4 154 140.2 155 141.6 155.6L143.2 156.3C146.5 157.7 148.9 159.6 148.9 163.6C148.9 168 145.7 171.2 141.6 171.2C137.9 171.2 135 168.3 134.5 164.4L137.4 163.8C137.4 166.5 139.4 168.4 141.8 168.4C144.3 168.4 146 166.2 146 163.6C146 161 144 159.8 142.1 159L140.5 158.3C137.9 157.1 135.5 155.5 135.5 152.1C135.5 148.1 138.8 145.8 142.2 145.8C144.7 145.8 146.8 147.1 148.1 149.5L145.9 150.9Z" fill="black"/>
<path d="M158.2 170.7H155.3V149H149.9V146.2H163.6V149H158.2V170.7Z" fill="black"/>
<path d="M168.3 146.2V160.6C168.3 164.6 169.4 168.3 173.8 168.3C178.2 168.3 179.3 164.6 179.3 160.6V146.2H182.1V161.6C182.1 167 179 171.1 173.7 171.1C168.5 171.1 165.3 167 165.3 161.6V146.2H168.3Z" fill="black"/>
<path d="M188.7 167.9H189.7C195.5 167.9 200.5 165.6 200.5 158.5C200.5 151.4 195.5 149.1 189.7 149.1H188.7V167.9ZM185.9 146.2H190.6C197.6 146.2 203.4 150.1 203.4 158.3C203.4 166.6 197.7 170.6 190.5 170.6H185.9V146.2Z" fill="black"/>
<path d="M209 146.2H206.2V170.6H209V146.2Z" fill="black"/>
<path d="M232.8 158.4C232.8 153 229 148.5 223.7 148.5C218.3 148.5 214.6 153 214.6 158.4C214.6 164 218.8 168.3 223.7 168.3C228.6 168.3 232.8 164 232.8 158.4ZM235.6 158.4C235.6 165.7 230.2 171.1 223.6 171.1C217 171.1 211.6 165.6 211.6 158.4C211.6 151.4 217 145.7 223.6 145.7C230.2 145.7 235.6 151.4 235.6 158.4Z" fill="black"/>
<path d="M268 158.3V159.3C268 166 263.6 171.2 257.2 171.2C250.8 171.2 245.7 165.3 245.7 158.5C245.7 151.5 251 145.7 257.5 145.7C261 145.7 264.6 147.4 266.8 150.4L264.8 152.4C263.2 150 260.4 148.4 257.6 148.4C252.5 148.4 248.5 152.8 248.5 158.3C248.5 163.4 252.4 168.3 257.4 168.3C260.9 168.3 264.8 165 264.9 161H259V158.2H268V158.3Z" fill="black"/>
<path d="M284.3 156.1V146.2H287.1V170.7H284.3V158.9H273.4V170.7H270.6V146.2H273.4V156.1H284.3Z" fill="black"/>
<path d="M294 146.2H291.2V170.6H294V146.2Z" fill="black"/>
<path d="M300.9 167.9H303.1C305.7 167.9 308.5 167.1 308.5 163.6C308.5 160.2 305.2 159.5 302.7 159.5H300.9V167.9ZM300.9 157.1H301.6C304.3 157.1 306.5 156.5 306.5 153C306.5 149.6 304.3 149 301.7 149H300.9V157.1ZM298 146.2H300.8C305.1 146.2 309.2 147.4 309.2 152.9C309.2 154.7 308.3 156.8 306.7 157.5V157.6C309.4 158.1 311.3 160.9 311.3 163.8C311.3 168.7 307.4 170.6 303.4 170.6H298.1V146.2H298Z" fill="black"/>
<path d="M317.3 167.9H324.3V170.7H314.5V146.2H317.3V167.9Z" fill="black"/>
<path d="M328.9 146.2H326.1V170.6H328.9V146.2Z" fill="black"/>
<path d="M103.1 130C110.1 127.2 118 119.7 121.4 109.6H104.9V105.9H126.3C125.9 107.8 124.7 113.4 120.2 120C122.1 121.6 126.7 125.6 131 130.1L128 133.3C126.7 131.7 124.4 128.8 118.1 122.9C115.9 125.6 111.5 130.5 105.4 133.2L103.1 130Z" fill="black"/>
<path d="M142 116C143.4 116.6 146 117.8 149.4 120.8C152.2 117 152.9 113.3 153.2 111.9H142.1C138.9 116.6 136.2 118.6 133.7 120.1L131.3 117.2C136.9 114.1 139.8 110 141.9 103.9L145.8 104.7C145.2 106.1 144.8 107 144.1 108.3H157.6C156.8 113.6 154 129.2 135.3 133.9L133.3 130.5C135.5 130.1 140.9 129.2 146.8 123.6C143.6 120.6 140.7 119.1 139.5 118.5L142 116Z" fill="black"/>
<path d="M160.1 128.8C172.1 127.7 177.5 123.9 181.6 110.3L185 111.9C180.7 124.8 175.3 131.1 160.9 132.8L160.1 128.8ZM183.9 108.5C183.2 105.4 182.6 104 182.2 103.3L184.8 102.7C185.7 104.7 186.3 106.9 186.5 107.7L183.9 108.5ZM179.3 109.2C178.9 106.9 178.4 105.5 177.8 103.7L180.4 103.1C181.2 105.1 181.5 106 182 108.5L179.3 109.2ZM167.2 120.4C163.5 118.2 159.8 117 158.3 116.5L159.8 113C161 113.4 165.7 114.9 168.7 116.6L167.2 120.4ZM169.6 112.6C166.4 110.9 163.5 109.7 160.7 108.9L162.2 105.3C167 106.8 169.4 108 171.2 108.9L169.6 112.6Z" fill="black"/>
<path d="M218.3 128.8C230.3 127.7 235.7 123.9 239.8 110.3L243.2 111.9C238.9 124.8 233.5 131.1 219.1 132.8L218.3 128.8ZM242.2 108.5C241.5 105.4 240.9 104 240.5 103.3L243.1 102.7C244 104.7 244.6 106.9 244.8 107.7L242.2 108.5ZM237.6 109.2C237.2 106.9 236.7 105.5 236.1 103.7L238.7 103.1C239.5 105.1 239.8 106 240.3 108.5L237.6 109.2ZM225.5 120.4C221.8 118.2 218.1 117 216.6 116.5L218.1 113C219.3 113.4 224 114.9 227 116.6L225.5 120.4ZM227.9 112.6C224.8 110.9 221.8 109.7 219 108.9L220.5 105.3C225.3 106.8 227.7 108 229.5 108.9L227.9 112.6Z" fill="black"/>
<path d="M272.2 107.6C272 106.2 271.4 104 270.8 102.7L273.4 102.2C274 103.9 274.3 104.9 274.7 107L272.2 107.6ZM268.9 102.4C269.5 103.8 269.8 105 270.2 107.1L269.2 107.2V107.3H271.1C270.6 122.1 263.6 130.5 251.7 133.2L249.7 129.6C254.8 128.5 265.3 126.3 267.1 111H247V107.3H267.3C267 105.6 266.7 104.6 266.1 102.8L268.9 102.4Z" fill="black"/>
<path d="M297.8 117.8C297.8 123.1 296.9 127.3 293.2 130.3C290.3 132.7 287.4 133.3 280.9 134L279.7 130.3C287.8 129.8 294 128.4 294 119.6V104.8H297.7V117.8H297.8ZM281.7 123.9H278V105.4H281.7V123.9Z" fill="black"/>
<path d="M318.3 103.2C318 104.3 317.8 105.5 317 107.5H330.7V110.9H320.1V115.7H329.9V119.1H320.1V124H329.9V127.3H320.1V134.9H316.7V110.9H315.5C313.4 115.1 311.7 117 310.7 118.2L308.5 115.3C312 111.7 314 106.3 314.8 102.8L318.3 103.2ZM304.6 117C303.5 118.5 302.6 119.3 301.7 120.2L300.2 116.8C303.7 113.3 305.9 109.4 307.3 102.8L310.7 103.4C310.3 105 309.5 107.9 308 111.2V134.8H304.6V117Z" fill="black"/>
<path d="M339.7 112.8H355.2V107H339.7V112.8ZM336.6 103.8H358.3V116H336.6V103.8ZM351.4 130H358.2V121.9H351.4V130ZM333.5 118.8H345.9V134.5H342.9V133.1H336.6V134.7H333.6V118.8H333.5ZM336.6 130H342.9V121.9H336.6V130ZM348.4 118.8H361.3V134.8H358.3V133.2H351.5V134.8H348.4V118.8Z" fill="black"/>
<path d="M188.1 127.9C197.7 120.9 201 114.6 201.5 113.5H188V109.8H203.7V104.1H207.2V109.8H214.4V113.6H207.2V133.5H203.6V116.6C203.6 116.6 200.7 123.5 190.1 131.1L188.1 127.9Z" fill="black"/>
<path d="M102.1 139.4H363.4V139.8H102.1" fill="black"/>
<path d="M105 51.2V51.5L104.4 51.7H102.9L101.3 51.8L101.2 51.6L101.9 51.2C102.9 51.4 103.8 50.9 104.8 51.1L105 51.2Z" fill="black"/>
<path d="M67.8 85.6L67.5 85.9L67 86.6L66.6001 87L65.5 87.9L64.4001 88.6C63.7001 89.2 62.7001 89.7 61.6001 89.9L60.2001 90.1C59.4001 90 58.5 90 57.9 89.7L57.2001 89.5C56.3001 89 55.9 88.7 55.5 87.6V87.3H55.4L55.3 86.5L55.2001 86.3L55.1001 84.6V84.3V83L55.2001 82.7L55.3 82.4H55.4V82L55.5 81.7V80.5L55.6001 80.3L55.7001 80L55.8 79.5H55.9V79.2L56 78.9V78.8H56.1001L56.2001 78.5H56.3L56.8 77.5L57.1001 77.1C57.8001 76.7 58.4001 76 59.6001 76L60.9001 75.6C61.6001 75.6 62.3 75.8 63 76L64.5 76.7L65.4001 77.7H65.5L65.6001 77.9H65.7L66 78.4C67.2 80.7 67.7001 82.1 67.9001 84.7V85H68V85.6H67.8ZM70.1001 85.7L69.3 85.3L69.1001 85.1L68.9001 84.9L68.8 84.4H68.7L68.6001 83L68.5 82.6L68.4001 82L68.3 81.1L68.2 80.7L68.1001 80.3L68 79.9L67.8 79.2H67.7L67.6001 78.8C66.5001 76.1 65.9 75.5 63 74.7L62.1001 74.4C61.2001 74.4 60.1 74.4 59.3 74.7C58.6 74.6 58.3 75 57.8 75.3L56.6001 76.1L56.3 76.6L56.2001 76.9L55.8 77.4L55.6001 77.6L55.5 77.9L55.4 78.2V78.3L55.3 78.6L55.2001 79.1H55.1001V79.3L55 79.9H54.9L54.8 80.6H54.7001L54.6001 81L54.5 81.5V81.9H54.4V82.2H54.3L54.4 82.7L53.8 83.7V84V84.1L54.4 84.8H54.3V85V85.8L54.4 86.3L54.5 86.8V87H54.6001V87.3L54.7001 87.7L54.8 88L55.3 88.7L56.3 89.6L57.2001 90.4C58.2001 90.7 59.1 91.3 60.3 91C61 90.9 61.8 90.9 62.3 90.5L63.1001 90.3L63.8 90.1L65.2 89.4L66.2 88.7C66.9 88.3 67.2 87.7 67.8 87.2L68.3 86.5L68.5 86.3L69.7 86.1L70.1001 85.7Z" fill="black"/>
<path d="M43.3 77H43.4H43.3V77.1L43.1 77.9H43L42.9 78.4L42.8 79L42.7 79.3L42.6 79.9V80.1H42.5L42.3 80.6L42 80.3L41.9 80.1H42V79.2H42.1L42.2 78.8L42.3 78.4L42.4 78L42.6 77.5V77.3L42.8 77.1V77V76.9L43.1 76.7L43.3 77Z" fill="black"/>
<path d="M44 79V79.2L44.1001 79.5H44L43.9 80L43.4 80.1L43.3 79.5L43.4 79.2L44 79Z" fill="black"/>
<path d="M45.1 79.7L45.2 79.9V80.4L45 80.6L44.5 80.1V79.9L44.6 79.8L45.1 79.7Z" fill="black"/>
<path d="M46.7 80.6L46.8 81L46.6 81.2L46.1 81L46 80.7V80.3H46.5L46.7 80.6Z" fill="black"/>
<path d="M58.7 83.4L58.5 83.2L58.4 82.7L58.6 82.6L58.7 82.7V82.9V83.4ZM59.4 82.5L59.3 81.8H59.2L59.1 81.1L58.9 80.8L58.4 80.3C57.5 80 57.2 80.8 56.7 81.3L56.5 81.6L56.4 81.9V82.1L56.3 82.4H56.2L56.1 83.7L56.2 84.9L56.3 85.1L57 86.1L58.2 86L58.6 85.8L59 85H59.1L59.2 84.7C59.3 83.8 59.5 83.3 59.4 82.5Z" fill="black"/>
<path d="M33.7 88.3L33.8 88.5L34.1 88.9V89.2L33.8 89.6L32.1 90.1L31.1 89.6L31.3 89.3L31.4 88.9L31.5 88.6L31.8 88.2L33.2 87.9L33.7 88.3Z" fill="black"/>
<path d="M64.5 99.5C63.3 99.5 62.1 99.5 60.9 99.5L59.7 99.3L59.5 99.1L59.7 99L62.4 99.3C63.1 99.1 63.8 99.5 64.5 99.5ZM89.9 102.6C88.8 102.2 87.5 102.2 86.5 101.8C85.5 101.7 84.6 101.4 83.5 101.5L82.4 101.3L81.4 101.1C80.6 100.9 79.8 100.9 79 100.8C78.3 100.4 77.3 100.7 76.6 100.3C75.4 100.2 74.5 99.7 73.3 99.8C72.5 99.8 71.8 99.5 70.9 99.5C70 99.2 69 99.4 68.1 99.2L66.5 99.1C65.4 99 64.2 98.8 63 99C62 98.8 60.9 98.7 59.8 98.7L58.4 98.5L58.1 99.1H58V99.4L58.7 100.2C59.6 100.4 60.6 100.8 61.6 100.5C62.4 100.5 63.2 100.6 63.9 100.6C64.6 100.7 65.4 100.6 66.1 100.8L67.5 100.9C68.4 101 69.4 100.9 70.3 101C71 100.8 71.6 101.2 72.3 101.2L74.8 101.4C75.7 101.7 76.7 101.5 77.6 101.7C78.4 101.7 79.2 101.7 79.9 101.9L81.6 102.1L83 102.4L84.2 102.6C85.1 102.9 86.2 102.9 87 103.2L88.5 103.5L89.8 103.3L89.9 103.2V102.6Z" fill="black"/>
<path d="M53.9 103.3C54.8 103.6 55.9 103.4 56.8 103.8L58.1 104.1L58.9 104.4C59.6 104.4 60.4 104.7 61.1 104.7L61.7 105.4V105.8C60.6 105.7 59.6 105.3 58.5 105.2L57.1 104.9C55.4 104.8 54 103.9 52.2 104.3L51.2 103.6L51.1 103.2L52.2 103.3H53.9Z" fill="black"/>
<path d="M88.6 111.8C87.8 112.1 87 111.8 86.2999 111.7C85.2 111.3 84 111 82.9 110.6L81.4 110.3C80.6 110 79.8 109.9 78.9 109.8L77.4999 109.4C76.2999 108.9 74.7999 108.4 73.4999 108C72.1999 107.8 71.2 107.3 70.1 107L68.9 106.5V106.4C69.6 106.3 70.0999 106.6 70.6999 106.7C71.5999 107.1 72.6999 107.3 73.6999 107.6L74.6999 107.7C75.5999 108 76.5999 108 77.2999 108.5C78 108.7 78.6 109.2 79.4 109.2C80.4 109.6 81.6 109.8 82.6 110.1L84.4999 110.5C85.1999 110.7 85.9 110.8 86.6 111L87.6 111.3L88.7999 111.8H88.6ZM90.2999 111.8L89.9 111.3L88.9 110.6C88.2 110.6 87.8999 110.2 87.1999 110.3C86.6999 110 86.1999 109.7 85.4999 109.7C84.2999 109.3 82.9999 109.1 81.6999 108.8L80.2999 108.2L78.7999 107.7L77.6999 107.3L76.2999 106.9C74.5999 106.4 72.9 106.2 71.1 105.7C70.4 105.5 69.4 105.5 68.7999 105.2C65.9 104.8 63.2999 103.9 60.4999 103.4C59.8999 103 58.9 103.1 58.2 102.8L57.4999 102.7C56.7999 102.5 55.9999 102.5 55.3999 102.3L54.7 102.2L53.2 101.7C52.5 101.3 51.4999 101.6 50.7999 101.9L50.7 102.1L50.7999 102.6L51.6 102.3L52.7999 102.6C53.7999 102.7 54.8 103 55.7 103.3L56.1 103.5L57.1 103.9C58 104 58.9 103.9 59.6 104.2C60.5 104.3 61.2999 104.8 62.2999 104.5L62.6 104.7C63.3 104.7 63.7999 105.1 64.2999 105.3L63.6999 105.6L63.2999 106.1L63.4 106.2C64.2 106.5 65 106.6 65.9 106.9C66.9 107.1 67.7999 107.6 68.7999 107.6C70.4 108.1 72 108.5 73.6 109.1C74.4 109.4 75.3 109.5 76.1 109.8L76.6999 110C77.4999 110.1 78 110.6 78.9 110.6C79.8 110.9 80.6999 111.1 81.4999 111.4L83.2999 111.9C84.5 112.2 85.7 112.4 86.7999 112.8C87.5999 112.9 88.3 112.8 88.9 113L90.4 112.4V111.8" fill="black"/>
<path d="M32.3 107.5L32.4 107.8L32.1 108L30.6 107.9L30.5 107.5L30.7 107.2L31.9 107.1L32.3 107.5Z" fill="black"/>
<path d="M75.5 119.2L75.3 119.1L73.6 118.3L72.1 117.5L70.6 116.7L68.9 116.1C68.1 115.7 67.2 115.6 66.5 115.1C65.7 114.9 65 114.6 64.4 114.1L63.2 113.7C62.6 113.4 62.1 113 61.4 112.9L60.5 112.6L58.8 111.8L58.1 111.3L58.3 111C59.3 111.1 60 111.7 61 111.9L61.4 112C62.3 112.4 63.3 112.6 64.1 113.1C64.8 113.3 65.5 113.6 66.1 113.9L67.5 114.6L68.4 115.1C69.1 115.4 69.9 115.7 70.5 116.1L71.8 116.7L72.7 117L74.5 118L75.7 118.9V119.2H75.5ZM79.3 120.8L78.4 120.1L77.5 119.2L75.6 117.9C74.8 117.2 73.6 116.9 72.8 116.2L71.6 115.6L71.1 115.4L70.5 115C69.8 115 69.6 114.5 69 114.3L67.8 113.8L66.2 113.2L64.8 112.7L63.6 112.2C62.9 111.7 62.1 111.5 61.3 111.2C60.5 111.1 59.9 110.8 59.2 110.6L59.1 110.5L57.3 110.4L57 110.8L56.9 111.2L57.1 111.8L58 112.6C59.1 113 60.2 113.6 61.3 114L62.9 114.7C63.5 115.2 64.5 115.2 65.1 115.6C65.7 116.2 66.7 116.1 67.4 116.6C68.5 116.7 69.1 117.5 70.2 117.6L70.3 117.7L71.8 118.4L72.9 118.8C73.8 119.1 74.7 119.4 75.3 120C76 120.1 76.5 120.4 77.2 120.6L77.8 121L79.2 121.1L79.3 120.8Z" fill="black"/>
<path d="M48.5 126.2H48.6001L48.8 126.5C49.4 126.8 49.8 127.2 50.5 127.3L51.2001 127.9V128.3L51.1001 128.4L51.7001 128.8C52.5001 128.9 53.0001 129.3 53.7001 129.5L54.2001 129.9L54.4 130.4L54.5 130.5L54.6001 130.8L54.7001 131.3H54.8C55.9 132.6 56.6 133.6 57.7001 134.8L58 135.3H58.1001C58.9001 136.4 60.3 137.5 60.7 138.8L61 139.3C61.5 140 62.2001 141 62.4001 141.9L62.5 143.1L62.6001 143.5L62.7 143.8L62.8 144.7H62.9001L63.1001 145.2L63.2 145.5C63.4 146.2 64.1001 146.4 64.4001 147.5L64.5 147.7L64.6001 148.2L64.7 148.5L64.8 149.8L65.1001 150.6L65.3 150.9L65.6001 151.3L66.3 151.9L67.3 152.9L67.4001 153.2L67.5 154.5H67.4001L67.3 154.9V155.3H67.2V155.4V155.5H67.3V157.3L67.4001 158.9L67.5 159.8V160.2H67.6001V160.4V161L67.7 161.3V162.8L68 163.2V163.7H67.9001L67.8 164.1H67.7V164.4L67.6001 164.8L67.3 165.1L67 164.9V164.5H67.1001L67.2 163.9L67.3 163.3V163.1H67.4001V162.7L66.7 162L66.6001 161.6H66.7L66.8 161.2V160.7V160.3H66.9001L66.8 159.7L66.7 159.4L66.6001 159.1L66.5 159L66.4001 158.6H66.3V157.6V157H66.4001V156H66.3V154.9H66.4001V153.8H66.5L66.3 152.8H66.2L66.1001 152.6L65.5 152L64.9001 151.4L64.3 150.6L64.2 150.3H64.1001V150L64 149.2L63.8 148.6L63.7 148.1H63.6001L63.5 147.4L63.4001 147.2L63.3 146.9L62.8 146L62.7 145.8L62.4001 145.3L62.3 145.1L62.1001 144.8H62L61.9001 144.5L61.8 144.1V143.8H61.7L61.6001 143L61.5 142.6L61.4001 141.4H61.3L61.2 141.1L60.9001 140.5L60.7 140.1L60.6001 139.9L60.3 139.4L60.1001 139.1C59.2001 137.7 59 137.1 57.4 135.9L56.7001 135L56.5 134.6C55.5 132.9 54.4 132.9 53.8 131.2L53.2001 130.3H53.1001L52.1001 129.7L50.6001 129V128.7H50.5L50.3 128.3C49.6 128.3 49.4 127.7 48.9 127.4L47.6001 126.7L47.3 125.9L47.7001 125.7L48.5 126.2Z" fill="black"/>
<path d="M31.7999 154.8L31.7 155.8H31.6V156.1L31.4999 157.2L31.6 157.3V158.4H31.4999L31.3999 158.8V158.9L30.9999 159L30.6 158.8L30.2999 158.3L30.2 158.1L29.9999 157.8L29.8999 157.4L29.6 157V156.9L28.8999 155.9L28.7999 155.7L28.4999 155.1V154.8H28.3999L28.1 154.4L27.6 154.3L27.3999 154.1L27.1 153.7L26.1 152.8C25.4 152.5 24.9999 151.8 23.9999 151.9L22.7999 152.3V152.4L21.2 152.3V152.2V151.7L22.3999 150.6L22.9999 150.1L23.8999 149.4L24.7 148.6L25.6 147.8L26.2999 147.3C26.9999 147 27.5 146.6 28.2 146.4L28.7999 146.5L29.1 146.8L29.3999 147.2L29.4999 147.5L29.7999 147.9L29.9999 148.2L30.1 148.5L30.2 149.1H30.2999L30.3999 149.4L30.4999 149.8L30.6 150.2H30.7L30.7999 150.6L30.8999 150.8L30.9999 151L31.2 152.3H31.2999L31.3999 153.9L31.7999 154.8ZM32.3999 154L32.2999 153.2L32.2 152.4L32.1 151.6H31.9999L31.8999 151H31.7999L31.7 150.7L31.6 149.9L31.4999 149.6H31.3999L31.2 148.9L31.1 148.5H31.2999L31.2 148L31.1 147.7L30.9999 147.4L30.8999 147.1L30.7999 147L29.7 146L28.7 145.3C27.6 145 26.8 145.8 26.2 146.3L25.6 146.8L24.3999 147.3L24.1 147.6L23.7999 147.9L23.2999 148.3L22.7 148.8C22.1 149.1 21.8 149.8 21.2 150.2L20.8999 150.5C20.2999 151.1 19.8 151.8 19.2 152.4V152.7H19.2999V152.9L19.7 153.4C20.9 153.7 22.1 153.3 23.2 153.1L24.4999 152.8C25.1999 152.6 25.3999 153.2 25.8999 153.4L26.6 154.1L27.3999 154.6V154.7H27.2999C27.7999 155.5 28.4999 156.2 28.9999 157L29.2999 157.5H29.3999L29.4999 157.7L29.6 157.9H29.7L29.8999 158.3H29.9999L30.2999 159L30.3999 159.2L31.6 159.8L32.2 159.5L32.2999 159.4V159.1L32.3999 157.7H32.4999V157.1H32.2999V156.1H32.3999V155.7V155.3H32.4999L32.6 154.7V154.4V154H32.3999Z" fill="black"/>
<path d="M52.7 173.3L52.5 173.5L51.7 173.4C50.7 172.6 49.9 171.6 49.1 170.6L49 170.5C48.6 170 47.8 169.8 47 169.9L45.5 169.6C44.7 169.4 44.1 169.9 43.3 169.7L43 169.3V168.8L43.2 168.6L43.6 168.3L44 168L45.2 167V166.9L45.5 166.5L46.4 165.5L47 165C47.5 164.4 48.1 164 49 163.8L50 163.7L50.9 164.5L51.1 164.7L51.2 164.9L51.5 165.7H51.6L51.7 166L51.8 166.2L51.9 166.5L52 167L52.1 167.4C52.3 168.1 52.1 169.2 52.3 169.9L52.4 170.4H52.5L52.6 171.9L52.7 172.7L52.8 173.2L52.7 173.3ZM53.7 173.1L53.6 171.9L53.5 171.3L53.4 170.9V170.8L53.1 169.6V169.5V168.5L53 167.2H52.9L52.8 166.6L52.7 166.4L52.6 166.1H52.5L52.4 165.7L52.3 165.6L52.2 165.3L52.1 165.1L51.8 164.8L51.2 164L50 162.9L49.1 162.7C48.2 162.5 47.8 163.2 47.1 163.4L46.2 164.1L44.7 165.6L44.6 165.9V166L44.5 166.2L44.4 166.4L43.5 167.5L42.7 168.2L42.3 168.8L41.9 169.3V169.7L42.1 170C42.6 170.5 43.7 170.8 44.5 170.5H45.5L47.2 170.6V170.3H47.3V170.6H47.2L47.3 170.9H47.5L48.6 171.3V171.4L49.1 171.9L49.2 172.2L49.7 172.9L49.8 173.1L50.3 173.7H50.4L50.9 174.2L52.3 174.6L53.5 174.4L53.7 174H53.8L53.7 173.1Z" fill="black"/>
<path d="M147.9 100.2V100.5L148.1 101.6L148.2 102L148.3 102.6H148.4L148.5 103.2H148.6L148.7 103.8H148.8L148.9 104.2H149V104.5L149.3 105.5V105.9L149.4 106.6H149.5L149.6 107.1H150.4V106.7H150.3V106.4L150.2 105.9H150.1L150 105.5L149.9 105.1L149.8 104.7L149.7 104H149.6L149.5 103.6L149.4 103.2V102.8L149.3 102.6L149.1 101.5V101.1H149L148.9 100.7L148.8 100.5L148.7 100.2H148.6L148.5 99.8H148.4L148.3 99.3L148.1 98.7L148 98.3H147.9L147.8 97.8L147.7 97.5L147.6 97.2L147.5 96.9L147.4 96.2H147.3L147.2 95.6L147.1 95.2L147 95H146.9L146.8 94.6L146.7 94.3L146.5 93.8L146.4 93.5H146.3L146.1 92.8L146 92.5H145.9L145.8 92.1H145.7L145.5 91.5L145.4 91.3L145.3 91H145.2L145 90.6L144.9 90.2L144.8 89.9L144.6 89.3L144.5 89L144.3 88.5H144.2V88.2L144.1 87.9L144 87.2L143.9 86.7L143.8 86.5L143.7 86.2H143.6L143.5 85.7L143.4 85.4L143.3 85L143.2 84.7H143.1L143 84.2L142.9 83.9L142.4 83.1L142.1 82.7L141.6 82L141.7 81.4L141.8 81V80.6L141.5 79.9L141.4 79.6H141.3L141.2 79.4H141.1L141 79.1H140.9L140.8 78.9H140.7L140.5 78.5C139.2 76.8 138.5 75.2 137.5 73.4L137.2 72.8H137.1L136.8 72.4C136.2 71.6 135.6 70.7 134.7 70.1L133.9 69.5L132.8 69.9L133 70.4L134.2 71.1L135.4 72.1L136 72.7L136.8 73.5L136.5 73.8L136.1 74.2L135.9 74.4L135.8 74.5L135.9 74.8L136 74.9L137.2 75.3V75.4H137.3C138.1 76.4 138.8 77.4 139.6 78.5L139.7 78.8H139.8L140.2 79.5V79.8H140.1L140 80.2H139.9L139.6 80.7L139.5 80.8V81L139.9 81.7L140.6 82.4V82.5L141.5 83.5L141.6 83.8H141.7L142 84.5L142.1 84.7L142.3 85.2H142.4L142.5 85.6L142.6 86.1L142.7 86.6L142.9 86.9L143.1 87.2L143.2 87.6H143.3L143.4 88.2L143.5 88.7H143.6L143.7 89.1L143.8 89.3L143.9 89.7L144 90L144.2 90.3L144.4 90.7H144.5L144.6 91.2C144.9 92 145.3 92.7 145.6 93.5L145.7 94H145.8L145.9 94.4L146.1 95.1H146.2L146.3 95.5H146.4L146.5 96H146.6L146.7 96.3L146.8 96.6L147 97L147.1 97.3H147.2L147.5 97.9L147.7 98.4L147.8 98.7H147.9L148.1 99.2L148.2 99.5L147.9 100.2Z" fill="black"/>
<path d="M57.7 40.4V40.7H57.6V41L57.5 41.3L57.3 41.5L56.8 42.1L55.7 41.7L55.4 41.3L55.2 41.1L55.1 40.8L55 40.6L54.9 40.2H55V39.9V39.2L55.2 38.9L55.5 38.5L56.7 38.2L57.3 38.8L57.5 39.3H57.6L57.7 40.1V40.4ZM58.5 39.7L58.4 38.9L58.3 38.7L58.1 38.3V38.2L57.8 37.9L57.3 37.4C56.8 37.1 56.1 37.4 55.4 37.3L54.9 37.7L54.6 38.1L54.3 38.8L54.2 39.2H54.1V39.8H54.2L54.3 40.7L54.4 41.4L54.5 41.7H54.6L54.8 42.2L55.4 42.3L57.2 42.5L57.5 42.2L57.9 41.6L58 41.4V41.3L58.3 40.7H58.4L58.5 39.7Z" fill="black"/>
<path d="M105.5 46.4L105 46L104.8 45.8L104.3 45.1V45L103.4 44.1L102.5 43.4L101.5 42.5L101.3 42.2V42.1L101.1 41.8L102.3 42.4C103.4 43.7 104.4 44.1 105.3 45.2L105.4 45.6H105.5V46.4ZM104.8 49.5L104.4 49.4L104.5 49.2L105 49V49.1L104.8 49.5ZM80.2 45.9L80 45.5L80.9 45.2L81 45.8L80.2 45.9ZM74.4 46.3L74.1 46.7L72.8 47.6L70.9 48.4C69.8 48.6 69 49.2 68 49.5L66.5 49.9L64.8 50.8L64.4 51C63.3 51.2 62.4 51.7 61.6 52.2L59.8 53C58.3 54 56.9 55.1 55.9 56.6L55.5 57L54.3 56.6L54 56.1L53.9 55.8L53.5 55.3L53.4 55.1H53.3L53 54.7L52.7 54.2L52.6 53.8L52.4 53.4L52.3 53H52.2L52.1 52.7V52.5H52L51.9 52L51.8 51.5H51.7V51.1V49.6L51.8 49.1L51.7 48.5V47.4L51.8 47V45.8H51.7V45H51.8L51.7 44.3L51.6 43.8H51.5V43.2L51.7 43L52.4 42.6L52.5 42.4L52.7 42.1V41.5H52.8V41.2H52.9V40.6V39.9L52.7 38.9L52.3 38.4L51.7 38.2V37.7V37.4H51.8L51.9 37H52L52.7 35.8L52.8 35.5L52.9 35.3L53.2 34.8L53.4 34.6L53.5 34.3H53.6L53.5 33.9L53.4 33.8L53.2 33.5L53.1 33.2V33C53 32.2 53.2 31.4 53.1 30.7H53.2V30.5L53.1 29.6H53L52.9 29.1H52.8L52.7 28.5V28.2H52.6L52.5 27.7H52.4V27C52.2 26.3 52.3 25.3 52.3 24.4L52.4 23.4L52.5 23.1V22H52.6L52.7 21.4V20.9L52.8 20.8L53 21C53.4 22 53.8 22.9 54.3 23.8L54.5 24.6L54.6 25.1H54.7L54.8 25.4V25.5L54.9 25.9V26.8H54.8L54.7 27.5H54.8H54.7H54.8H54.7V27.7H54.8V27.8H54.7V28.4V29.1H54.6L54.7 30.1H54.6V30.7H54.5V31.9V32.8H54.6L54.8 33L55.4 32.4V32.3V31.6L55.5 30.5V30.2V29.3V28.8V28.2H55.6L55.7 27.6V26.9V26L55.8 24.4L55.9 23.8V23.5H56L56.1 23.1L56.2 22.6L56.3 21.9H56.4V20.9H56.3V20.8H56.4L56.5 20.4H56.6L56.7 19.9H56.8L56.9 19.5L57 19.2L57.1 19.1L57.6 19.8L57.7 20.1L57.9 20.4L58 20.6L58.1 21.1L58.2 21.4L58.3 21.7L58.4 21.9L58.5 22.5L58.6 22.8L58.7 22.9L58.8 23.2L58.9 23.7H59L59.1 24.1H59.2L59.3 24.5L59.6 25L59.7 25.3V25.6H59.8L59.9 26.2H60L60.1 27.1C60.2 28.1 60.2 29.2 60.9 29.9L61.4 30.5C61.9 31 62.3 31.5 63.2 31.7L64.4 32.5L65.3 33.3L65.5 33.7H65.6L65.7 33.9C66.2 34.8 66.5 35.7 67.1 36.5L67.4 36.8C69.1 40.1 68.4 38.5 70.6 40.7L70.9 41.2L71.5 42.3L71.6 42.7L71.7 43.1H71.8L71.9 43.7H72L72.1 44L72.3 44.4L72.4 44.6V44.7L74 45.5L74.2 46.1L74.4 46.3ZM51.3 42.2L51.2 41.9L51.1 40.8L51.2 40.3L51.3 39.9L51.5 39.5L51.8 39.2L51.9 39.4L52 39.6L51.5 40.6L51.7 40.9L52 41.1L52.1 41.2V41.6H52L51.7 42L51.3 42.2ZM7.8 138.7L8.9 137.9C9.7 137.4 10.6 137 11.4 136.5L11.9 136.8V137L12 137.7L12.1 138.6V139.5L12 140.7L12.1 141L12.2 141.5V141.9H12.3V143.4L12.4 144.7L12.5 145.7L12.6 145.8H12.5V145.9L12.4 146.4L12.3 146.6H12.1L11.7 145.9L11.6 145.8L11.2 145L10.9 144.6L10.6 144L10.3 143.6L10.2 143.5C10 143 9.30001 143 8.60001 143C7.80001 143.1 7.2 143.4 6.4 143.6L5.4 144.1L3.9 144.8L3.5 144.7L3.4 144.4L3.5 143.8L3.60001 143.5L3.7 143.3V143L3.9 142.8L4.10001 142.2L4.2 141.9C6 139.4 5.3 141.2 6.9 139.3L7.8 138.7ZM89.3 42.2L89.8 41.8H91V42L90.6 42.3L89.3 42.5V42.2ZM136.5 70.8C135.8 70.1 135.1 69.4 134.5 68.6L134.1 67.4L133.7 67L133.5 66.7L133.4 66.1L132.2 64.5C131.5 64 131.1 63.1 130.3 62.8L129.3 62L129.1 61.7L129.2 61.5L129.4 61.2V60.7L128.2 59.7L127.6 59.1L126 57.8C125.3 57.4 124.5 57 123.7 57C122.9 56.7 121.9 56.6 121.2 56.1L119.6 55.4L118.1 54.4L117.5 53.9L117.4 53.5L119.1 53.9L120.1 53.8L120.2 53.4L120 53.1L118.7 52.8L117.3 52.6L116.1 51.7L116.4 51.5L118.3 51.9L119 52C119.7 52.2 120.3 52.5 121 52.4L122.1 52.1L122 51.8C120.5 51.7 119.3 51 117.9 50.8L116.5 50.3L117.2 50C118.1 49.9 118.8 50.2 119.6 50.2C121 50.4 122.3 50.8 123.5 51.4L125 52.1L125.5 51.8V51.3L125.1 51L123.8 50C123 50.2 122.6 49.4 121.8 49.5C120.6 49.4 119.4 49 118.1 49.1L116.6 48.9L116.4 48.6L116.6 48.4L117.8 48.3C118.5 48.2 119.1 48.2 119.8 48.1C120.8 47.9 122 48 123 48.2L123.2 48.1V47.8C121.8 47.2 120.3 47.5 118.8 47.4L117 47.5L116.8 47.3L118.1 46.6C118.9 46.2 119.9 46.1 120.6 45.5C121.3 45.2 122.1 45.2 122.9 45.1L124.4 44L124.5 43.8L124.9 43.1L125.2 42.6L125.3 42V41.6V41.2L125.4 40.2V39.2H125.5L125.4 38.5L125.5 38.1V36.8L125.4 36.7C125.4 36.1 125.4 35.1 125.4 34.3L125.5 33.9L125.4 33.2L125.5 32L125.6 31.2H125.7C125.7 30.4 125.7 29.7 125.8 28.9L125.7 28.6C125.5 27.5 125.7 24.5 125.4 23.2L125.3 22.5C125.4 21.8 125.2 21.2 125.2 20.5L125.1 20.2L125.2 19.5H125.1L125 18.2L124.9 17.9L124.8 17.7V17H124.7L124.6 16.1L124.4 15.7L124.3 15.1L124.2 14.4L124.1 13.6V12H124L124.1 11.9H124L124.1 11.5V10.5H124L123.9 9.5C123.5 7.5 123.4 5.4 122.7 3.5L122.4 2.7C122.1 2 122 0.900003 121.5 0.300003L120.9 0L119.3 0.400009L119.1 0.699997L118.9 1L118.7 1.40001L118.5 1.7L118.1 2.40001L117.6 3.5L117.1 4.60001L116.8 5.10001L116.5 5.7L116.3 6L116.1 6.3C115.8 7.1 115.2 7.6 114.8 8.2L114.5 8.7L113.9 9.60001C111.9 13.4 110 17.3 108 21.1L107.8 21.5L107.7 21.9C106.5 27.2 104.5 30.6 102.1 35.4L102 35.7L101.7 36.1L101.8 36.5L101.9 38.3C102.3 39 103 39.6 103.5 40.2L104.1 41C104.4 42 105.4 42.9 105.3 44V44.3L104.6 43.9L103.6 43.1C103 42.4 102.2 41.9 101.3 41.5C101 41.2 100.7 40.5 100 40.8L99.7 41.3L99.4 41.5L99 42C99.8 42.8 100.9 43.4 101.8 44.2L103 45.2L104.1 46.5L105.1 47.2L105.2 47.5L105.3 47.9L105.2 48.1L105 48.3L104.4 48L103.2 47.1L102.4 46.4C101.7 45.9 100.9 45.5 100.3 45L99.2 45.2L99.9 45.9C100.6 46.5 101.4 46.8 102.1 47.3L102.3 47.7L102 47.6C100.6 47.5 99.4 47 98 46.8C97.3 46.8 96.8 46.4 96.1 46.5C95.3 46.1 94.2 46.3 93.4 45.9L93.3 45.8L92.9 45.6C92 45.8 91.1 45.7 90.1 45.8L89.5 45.7L88.4 45.2L88.5 44.5C88.6 43.6 89.7 44.2 90.2 43.6C91.1 43.6 91.7 42.8 92.7 42.8L92.9 42.3L91.5 42.1L91.6 42L91.9 41.7L93.4 41.1L93.3 40.8L92.7 40.9L91.6 41.3C90.8 41.3 90.1 41.4 89.3 41.5L88.8 41.2L88.2 42C88 42.5 88.5 42.8 88.1 43.9L87.9 45.3L87 45.5C86.1 45.7 85.1 45.6 84.2 45.8L82.7 46L82.4 45V44.4L82.5 43.8H82.6L82.5 42.5L82.6 42.3L82.5 42.1L82.6 41.5L82.8 41.2L82.9 40.7L83 40.1L83.1 39.7L83 39.4L82.9 38.7L82.7 38.3V37.5L81.2 36.5L80.3 35.8C79.6 34.5 79.7 33.7 80.1 32.4L80.2 32.1L80.4 31.7C80.9 30.5 81.3 29.3 81.6 28.1L81.7 27.6L82.1 25.9V25.6L82.2 25C82.8 23.1 83.6 21.3 84.2 19.4L84.4 19L84.5 18.7C86.2 14 87.5 12.7 90 8.90001L91.1 7.60001L91.8 6.90001L92.1 7.2C92.5 8.6 92.7 10 93 11.4L92.9 13.2H92.8L93 13.6C93.2 15 93.3 16.4 93.4 17.8V18.9C93.6 19.8 93.7 20.1 93.8 21.1L93.9 21.4V22.3H94C93.9 23.1 94.1 23.8 94.1 24.6L94.2 25L94.3 25.4V26.5L94.2 27V27.8L94.1 28.1L94 28.9L93.9 29V29.8V30.6L94 30.8L94.1 31.1L94.2 32.1L94.3 32.4L94.4 32.7L94.5 33.2L94.6 33.5L94.7 34.9L94.6 35.5L94.1 36.8C93.5 37.5 92.7 38.2 91.6 38.2L90.1 38.9L89.3 39.7L89.2 40.1L89.3 40.3V40.8L89.6 41C90.2 40.8 90.9 40.7 91.6 40.5L92.6 40.3L93.7 40.1L92.2 39.6H91.5L91.4 39.4L92.9 38.6C93.6 38.2 94.2 37.7 94.7 37.2L95 36.7C95.6 36.1 95.4 34.8 95.4 34.1V33.6L95.3 33.2L95.2 32.7V29.8H95.1L94.9 29.3V27.4H95V26.7L95.1 25.5L95 25.2L94.9 24.7V22.6H95L94.9 22.3C95.1 20.6 94.6 18.9 94.5 17.2L94.4 16.7C94 15.6 94.4 15.2 94 14.3L93.9 13.5L93.8 13.1C93.9 12.4 93.7 11.8 93.8 11.1L93.7 10.5C93.5 7.6 93 7.8 92.6 5.7L92.5 5.3H91.2L90.6 6L89.6 6.90001L89.5 7L89.4 7.40001L89.2 7.7L88.8 8.2L88 9.5L87.4 10.3C86.2 11.3 86.2 12.6 85 13.9L84.9 14.2L84.7 14.6C84.1 16.6 83 18.4 82.6 20.3L82.3 21L82.2 21.3L82 21.7L81.9 21.9C81.3 24.2 80.5 24.8 80.3 27.5L80.2 28.2L80.1 28.4C80 30.3 78.1 32.7 78.9 34.5L79 34.9L79.2 35.2L79.6 35.9C80 36.7 81 36.7 81.7 37.3L82.3 37.8L81.8 38.8L80.9 38.4C80 38.2 79.4 37.6 78.6 37.2L76.9 36.6L76.3 36.9L77.1 37.6C77.8 37.7 78.5 37.9 78.9 38.4L78.3 39L77.9 39.6L79.6 39.7C80.4 39.9 81.4 39.8 82 40.4L81.9 40.9L80 41.1L79.1 41.4L79 41.6L80.1 41.5L81.7 41.6L81.8 42.3L81.4 42.7C80.7 42.9 79.9 43 79.2 43.1L79 43.5L79.4 43.6L81.1 43.1L81.7 43.3V43.9L81.1 44.5L79.8 45.2L78.1 45.9L76.9 46.6L76.2 46.7L76.3 46L76.4 45.6L76.3 45.2L76.2 44.9L75.3 44.5L73.8 44.2L73.7 43.9L73.6 43.5L73.1 42L73 41.8L72.7 41.3C72.4 40.4 71.7 39.8 71 39.1L69.9 38.2C68 35.7 67.9 34.5 66.3 32.3L64.9 31C63.8 30.6 62.7 30.1 62 29.1L61.9 28.7L61.8 28.3L61.7 27.9V26.9L61.5 26.4V26.3L61.6 25.6L61.5 25.3L61.4 25L61.3 24.5L61.1 24.3L60.9 23.7L60.8 23.5L60.6 23L60.3 22.5L60.1 22V21.6L59.9 21.3L59.4 20L58.9 19.1L58.8 18.7L58.7 18.3L58.6 18L58.4 17.3L58.3 17.1L57.7 16.9L57.3 17.3C56.5 18.4 56.4 22.4 56.1 23.5L55.8 23.6L55.4 22.9C54.9 21.8 54.5 20.9 54.1 19.7L53.4 18.8L52.9 18.9L52.8 19.3L52.7 19.9L52.6 20.3L52.5 21L52.4 21.4L52.3 22.9H52.2V23.6L52.1 24.2V25.7H52.2L52.1 25.9V27.2H52.2L52.3 28.2C52.5 28.9 52.7 29.6 52.9 30.3L52.8 31C52.9 31.8 52.7 32.5 52.8 33.4L52.9 33.9V34.9C51.2 38 51.7 37.1 51.2 39.7V40.7L51.1 40.8L51.2 41.3C51.2 42.3 51.4 43.5 51.5 44.6L51.6 45.1C51.6 45.8 51.5 46.2 51.6 47H51.5L51.4 47.5C51.1 49 51 50.5 51.6 51.9L51.8 52.9L52 53.6L52.5 54.9L52.8 55.6L53.3 56.5L52.5 57.4L51.8 58.1L51.3 58V58.1L51.1 58L50.5 58.5L50.4 58L50.5 57.3L50.1 57L49.6 57.8L49.3 58.6L49.1 58.9C47.9 59.8 47.5 61.7 46.5 63L46.2 63.4L46.1 63.8C45.7 64.8 45.2 65.7 44.7 66.6L44.2 67.4L44 68L43.8 68.3C42.2 70.7 41.2 73.4 40.8 76.4L40.7 76.8L40.6 77.7V78L40.5 78.3L40.4 78.6L40.3 79.4L40.2 79.7L39.3 81L38.5 81.5L37.4 82C35.9 82.3 34.6 82.8 33.3 83.3L32.8 83.7C31.9 83.7 31.4 84.5 30.8 84.9V85L30.6 85.3L30.5 85.8L30.3 86.2L30.2 87.2V87.8L30.3 88.2L30.4 88.7V89.6L30.1 90.2L29.5 91.6L29.3 92.5L29.2 92.6L28.7 93.6L28.3 93.5H27.3L26.4 93.1L25.2 93.4L25.3 93.8L25.7 94L27.3 94.5L28.5 95.1L28.7 95.4L28.8 96V97L28.7 97.3L28.5 97.6C27.6 97.7 26.8 98 25.9 98.2C24.8 98.5 23.9 99 22.9 99.4L21.2 100.2V100.6L21.4 101L22.9 100.6L24.7 99.7C25.9 99.4 26.9 98.7 28.2 98.6L28.4 98.9L28.5 99.3L28.4 99.8L28.3 100.1L28.2 100.4L28 100.7L27.9 101.2L27.8 101.7L27.7 101.9L27.5 102.4L26.3 103.2L25.9 103.8L27.5 103.6L28.2 104.2L28.3 104.9L28.4 105.2L28.5 105.6L28.6 105.8L28.7 106.5L28.3 106.8L28.4 107.2L28.5 107.5L28.6 107.9L28.8 108.2L28.7 108.6C28.1 108.9 27.5 109.2 26.7 109.2L25.6 109.6L25.2 110L25.1 110.5L25.2 111.3L25.3 111.6H25.2L24.6 112.5L24.1 113.6L23.7 114.3L22.9 115.5L22 116L20.7 117.3L20.3 117.9L20.2 118.2L20.1 118.5L19.9 118.8L18.7 119.8L18.3 120.6C18 121.5 17 121.9 16.5 122.7C16.3 123.4 15.4 123.5 15.1 124.1C14.3 124.6 13.9 125.3 13.2 125.8L12.1 126.7L11 127.2L11.3 127.8L10.7 128.7C10 129.1 9.5 129.7 9 130.3L8.5 130.9L8.60001 131.2L8.8 132L8.7 132.2L7.60001 133.4L7.3 133.8L6.8 134.6L6.7 135L6.8 135.3L6.7 135.8L6.10001 136.7L5.7 137.3L5.4 137.8V138.2L5.3 138.8L5.10001 139.4L4 140.7L3.8 141.1L3.7 141.4L2.8 142.7L2.5 143.5L2.4 143.7L2.3 144.2L2.2 144.5L2.10001 144.9L2 145.7V146.8L1.9 147L2 147.4L1.3 148.3C0.800003 149.9 0.700005 149.6 0.200005 150.7L0.300003 150.9C0.800003 151.8 0.4 154.2 0 155.1V155.7L0.300003 155.9L0.600006 155.4L0.700005 154.8L0.800003 154.3L0.900002 154L1 153.7L1.10001 153.2L1 152.1L1.10001 151.8L1.2 151.4L1.4 151L1.8 150.5V150.1V149.7L1.9 149.4L2.9 148.1L3.60001 147.4L3.8 147.1V147L3.3 146.1L3.5 146C4.3 145.7 5 145.2 5.8 145.2C6.6 144.8 7.60001 144 8.60001 144.5L10.1 145.7L10.4 146.2L10.5 146.5L10.6 146.8L11.7 147.8L12.8 147.6L13.3 146.7L13.4 146.3L13.5 145.9L13.6 145.6V143.5L13.5 142.9L13.4 142.5L13.3 141.7V137.5L13.2 137.1L13.1 136.8L13 136.5L12.5 135.6L10.7 135.9L10.4 136.2L8.9 137C8.3 137.3 7.80001 138 7.10001 138L7.4 137.2L7.60001 136.6L7.7 136.1L7.8 135.5C8.5 135.1 8.90001 134.5 9.60001 134L9.7 133.7L9.10001 133.6L8.7 133.7L8.9 133.4L10 132.1C10.9 131.7 11.2 130.9 11.8 130.4L12 129.5L11.3 129.4V129.2C14 126.9 13.7 125.4 17.6 122.9L19.2 121.3C19.9 121.3 19.9 120.6 20.4 120.4C21.3 119.3 22.9 119 24.1 118.1C25.2 117.4 26.4 117.1 27.8 116.9L29.8 116.4L30.8 116.2L30.9 116.9L31.4 117C32.3 117.5 33.4 118 34.5 117.9C35.2 117.6 36.2 117.5 36.7 118.1C37.4 118.3 37.8 118.9 38.6 119L39.8 119.4L41 120.3L42 121.2C42.5 121.8 43.4 122 43.9 122.7L45.1 123.5L46.1 124.1C46.8 124.4 47.3 125.1 48.1 125.4L48.7 125.3L48.3 124.5L46.8 123.7L45 122.6C44.2 122.2 43.4 121.6 42.9 121L41.5 119.8L40 118.7C39.2 118.6 38.5 118.1 37.8 117.9C37.2 117.7 36.7 117.3 36.1 117.2L34.6 117.1L33.3 116.5C32.6 116.7 32.6 115.9 32 115.8C31.3 115.7 30.5 115.6 29.7 115.7C28.9 115.6 28.4 116.4 27.6 116C27 116 26.4 116.3 25.8 116.4C25 116.7 24.2 117 23.5 117.5L22.3 118.1L21.1 118.4L21.2 118C21.6 117.2 22.6 116.9 23.3 116.2H23.6L24.4 115.3L24.5 114.9L24.6 114.7L25.1 114.1L25.9 112.9L27 111.9L27.3 111.3L27.7 110.7L27.9 110.1C28.5 109.6 29.3 109.6 30 109.4L30.1 109.1L29.7 108.4L30 107.5C29.4 105.1 28.2 104 28.5 100.9L28.7 100.6L28.8 100.2L28.9 99.9L29 99.5L29.1 99.1V98.4L29.2 97.9L29.3 96.9L29.4 96.6V95.9L29.3 95.5L29.2 95.1L29.3 94.7L29.4 94.1V93.7V93.3C30.2 91.8 29.8 92 30.3 91L31 90.1L30.8 89.5L30.6 88.7L30.5 87L31.2 85.2L32.2 84.9L33.5 85.6C34.4 85.8 34.8 86.6 35.4 87L35.5 87.3L35.9 88L36.1 88.5L36 88.6V89.5L36.3 89.8L37.1 89.5V88.2L36.9 87.7L36.8 87.3L36.5 86.8C36 86.2 35.5 85.6 34.9 85.2L34.5 84.9L33.3 84.1L34.5 83.4L34.9 83.6L35 83.9C35.7 84.6 36.3 83.4 37.2 83.6L37.4 84V84.3H38L40 84.4C40.8 84.9 39.5 85 39.7 85.6L41.4 86.1L41.3 86.4L41.1 86.7L41.2 87L42.2 87.4L42.5 87.1L41.7 86.3L41.9 85.7H42L41.9 85.5L40.9 84.1L40.6 83.7L39.6 83.3L38.9 82.7L39 81.8L40.6 80.5L41 80.7L41.4 80.5L41.5 80.3L41.6 79.2L41.7 79L41.8 78.5L42 77.9L42.1 77.4L42.2 77.2L42.3 76.7L42.4 76.4L42.3 75.9L41.9 76.2L41.8 76.5L41.7 76.9L41.6 77.2L41.3 78.3L41.2 78.7V78.4L41.3 78V77.8H41.4L41.5 76.5L41.6 76.1C42 74.7 42 73.1 42.8 71.9L43.3 70.9L43.9 69.5C45.1 67.4 46.3 64.4 47.5 62.4L48 61.5L48.4 61.1V61.9L48.8 62.2L49.1 61.5L49.5 60.4L49.7 60L49.9 59.7L50.3 59.5L50.7 60L51.4 59.7L52.5 58.3L52.6 58.1L52.7 57.8L53.6 56.9L55.3 57.1L55.4 57.2L55.6 57.8L56.5 57.4C57 56.7 57.7 56.1 58.2 55.4C59.1 54.6 60 53.7 61.1 53.1L61.4 53.2L62.5 53C63.2 52.3 64.4 52.1 65.2 51.5C65.8 51 66.7 50.8 67.5 50.4C68.2 50.1 68.9 50.1 69.5 49.8C70.6 49.5 71.5 48.8 72.5 48.5C73.4 48.3 74 47.7 74.9 47.8C75.7 47.6 76.5 47.2 77.4 47.1C78.2 47 78.9 46.6 79.7 46.7L80.8 46.4C81.5 46.1 82.3 46.2 83.1 46.1C83.7 45.9 84.5 45.9 85.2 45.8C86.1 45.5 86.9 46.1 87.8 46C90.3 45.7 92.9 46.2 95.3 46.6C96.3 46.9 97.4 46.8 98.4 47.1L99.1 47.2L100 47.3L100.4 47.9L100.3 48.2L101.2 49L100.1 49.5V49.8C100.7 50.2 101.6 50 102.3 50L103.6 50.1L104.9 50L105.3 50.6L105.8 50.7L106 50.4L106.1 49.9L106.2 49.2C106.7 47.5 106.5 45.2 106.8 43.7V42.3C103 34.2 101.8 38.7 105.8 30.4L106 29.9C106 28.3 107.6 26.6 107.7 25.3L107.8 24.7L108 24.3L108.1 23.7H108.2V23.4C110.7 15.8 116 8.10001 119.8 1.10001L120.6 0L121.8 0.100006L121.9 1.7H122L122.1 2.2L122.3 2.60001L122.4 2.90001L122.5 3.40001L122.6 4L122.7 4.7L122.8 5.60001L122.9 6.10001V6.90001L123 7L123.1 8.2L123.2 9.2C123.4 9.6 123.5 10.7 123.7 11V11.9H123.8V14.6L123.9 14.7L124 15.1L124.1 15.4L124.2 15.8L124.3 16.6V17.7L124.4 18L124.5 18.7L124.6 19.2L124.7 19.9L124.8 20.1L124.7 20.3L124.8 21V22.9H124.9L125 24.6L125.1 25.3L125 25.4C125 26.9 125.4 28.5 125.2 29.4V30.7H125.1V31.4L125 31.9V32.8H124.9L124.8 33.9L124.9 34.9V36.7L124.8 37.1L124.9 37.6V38.4L124.8 38.5V39.5V40.2L124.7 40.6L124.6 41.2L124.5 41.7L124.3 42.4C123.7 43.3 122.6 43.6 121.5 43.6C120.8 43.6 120.4 44.1 119.8 44.2C119.1 44.5 118.3 44.6 117.6 44.8C116.8 45.1 116.2 45.7 115.8 46.4L115.7 46.7C115.9 50.7 113.9 52.4 113.9 54.6L114.2 54.9L115 54.3L115.1 54L115.2 53.6L116.3 53.9C117.2 54.1 117.8 54.6 118.4 55.1C119.6 55.8 120.8 56.7 122.2 57.1L122.7 57.3C123.4 57.4 123.9 57.8 124.6 57.9C125.5 58.5 126.7 58.8 127.4 59.6L127.3 60L126.3 60.2L125.8 60.6L127.1 61.4L129.2 62.6C130.4 63 131.2 63.8 131.8 64.7L131.9 65.1L131.7 65.2C131.1 65 130.5 64.7 129.8 64.8L129.2 65.2L130 65.6C131.2 65.9 132.3 66.4 133 67.2L134.2 68.3L135.3 69.4L136.1 70.3L136.8 71.1H137.2L136.5 70.8Z" fill="black"/>
<path d="M56.8 39.3L56.9 39.5L57 40.4V40.9H56.9L56.2 41.2L55.9 41L55.8 40.6L55.5 39.8L55.7 39.5V39.4L56 39.3H56.8Z" fill="black"/>
</svg>
